# xmcd
#
# Track frame offsets:
#	150
#	22657
#	45337
#	68526
#	97403
#	119678
#	142397
#	161529
#	179161
#	199736
#	216928
#	236815
#
# Disc length: 3387 seconds
#
# Revision: 0
# Processed by: cddbd v1.5.1PL0 Copyright (c) Steve Scherf et al.
# Submitted via: dBpowerAMP V4.0
#
DISCID=b60d390c
DTITLE=Joe - All that I am
DYEAR=1900
DGENRE=
TTITLE0=All the Things (Your Mum won't do)
TTITLE1=The Love Scene
TTITLE2=Don't wanna be a player
TTITLE3=Good girls
TTITLE4=How soon
TTITLE5=Sanctified girl
TTITLE6=All that I am
TTITLE7=No one else comes close
TTITLE8=Come around
TTITLE9=U shoulda told me
TTITLE10=Love don't make no sense
TTITLE11=No one else comes close (unplugged)
EXTD=
EXTT0=
EXTT1=
EXTT2=
EXTT3=
EXTT4=
EXTT5=
EXTT6=
EXTT7=
EXTT8=
EXTT9=
EXTT10=
EXTT11=
PLAYORDER=
